<svg width="75" height="75" viewBox="0 0 75 75" fill="none" xmlns="http://www.w3.org/2000/svg">
<path d="M37.5 37.5C32.3438 37.5 27.9297 35.6641 24.2578 31.9922C20.5859 28.3203 18.75 23.9062 18.75 18.75C18.75 13.5938 20.5859 9.17969 24.2578 5.50781C27.9297 1.83594 32.3438 0 37.5 0C42.6562 0 47.0703 1.83594 50.7422 5.50781C54.4141 9.17969 56.25 13.5938 56.25 18.75C56.25 23.9062 54.4141 28.3203 50.7422 31.9922C47.0703 35.6641 42.6562 37.5 37.5 37.5ZM0 75V61.875C0 59.2188 0.684376 56.7766 2.05313 54.5484C3.41875 52.3234 5.23437 50.625 7.5 49.4531C12.3437 47.0312 17.2656 45.2141 22.2656 44.0016C27.2656 42.7922 32.3438 42.1875 37.5 42.1875C42.6562 42.1875 47.7344 42.7922 52.7344 44.0016C57.7344 45.2141 62.6562 47.0312 67.5 49.4531C69.7656 50.625 71.5813 52.3234 72.9469 54.5484C74.3156 56.7766 75 59.2188 75 61.875V75H0Z" fill="#9069FF"/>
</svg>
